<svg xmlns="http://www.w3.org/2000/svg" width="967" height="46" viewBox="0 0 967 46">
    <g fill="none" fill-rule="evenodd">
        <g stroke="#131313" stroke-linecap="square" stroke-width="2" transform="translate(1) translate(0 4)">
            <path d="M40 40L27.314 27.314"/>
            <circle cx="16" cy="16" r="16"/>
        </g>
        <text fill="#22232B" font-family="Avenir-Heavy, Avenir" font-size="26" font-weight="600" transform="translate(1)">
            <tspan x="97" y="26">living room</tspan>
        </text>
        <path fill="#1B1B1B" d="M97 44H966V46H97z" transform="translate(1)"/>
        <g>
            <text fill="#22232B" font-family="Roboto-Regular, Roboto" font-size="13" transform="translate(1) translate(810 15)">
                <tspan x="0" y="12">Powered by </tspan> <tspan x="70.77" y="12" font-family="Roboto-Bold, Roboto" font-weight="bold">Algolia</tspan>
            </text>
            <path fill="#383B48" fill-rule="nonzero" d="M149.704 9s1.076 3.125-.875 6.577c0 0-1.06 1.93-1.829-2.456 0 0 2.251-1.693 2.704-4.121zM148 10s-1.291 3.093-5.13 3.976c.002-.001-2.122.518.26-3.225 0 0 2.877.61 4.87-.751zm2-2s3.093 1.291 3.976 5.13c-.001 0 .518 2.121-3.225-.26 0 0 .61-2.877-.751-4.87zm-7.121-1s1.693 2.251 4.121 2.704l-.045.014c-.393.121-3.321.926-6.532-.889 0 0-1.93-1.06 2.456-1.829zm12.698.17c0 .002 1.93 1.061-2.456 1.83 0 0-1.693-2.251-4.121-2.704 0 0 3.125-1.076 6.577.875zm-10.328-4.04s-.61 2.877.751 4.87c0 0-3.093-1.291-3.976-5.13.001 0-.518-2.121 3.225.26zM149 2.88S146.749 4.572 146.296 7l-.014-.045c-.121-.393-.926-3.321.889-6.532.001 0 1.06-1.93 1.829 2.456zm3.87 2.37s-2.876-.61-4.87.751c0 0 1.291-3.093 5.13-3.976 0 .001 2.121-.518-.26 3.225z" transform="translate(1) translate(810 15)"/>
        </g>
    </g>
</svg>
