<svg xmlns="http://www.w3.org/2000/svg" width="300" height="342" viewBox="0 0 300 342">
    <g fill="none" fill-rule="evenodd">
        <g transform="translate(0 243)">
            <text fill="#22232B" font-family="Avenir-Roman, Avenir" font-size="13">
                <tspan x="243.36" y="94">$10,000+</tspan>
            </text>
            <text fill="#22232B" font-family="Avenir-Roman, Avenir" font-size="13">
                <tspan x="0" y="94">$0</tspan>
            </text>
            <path fill="#1B1B1B" d="M8 54H295V56H8z" opacity=".1"/>
            <circle cx="291" cy="55" r="7" fill="#FFF" stroke="#1B1B1B" stroke-width="2"/>
            <circle cx="8" cy="55" r="7" fill="#FFF" stroke="#1B1B1B" stroke-width="2"/>
            <text fill="#22232B" font-family="Avenir-Roman, Avenir" font-size="16">
                <tspan x="0" y="16">Price Range</tspan>
            </text>
        </g>
        <g>
            <path fill="#1B1B1B" d="M0 34H300V36H0z" opacity=".1" transform="translate(0 182)"/>
            <path stroke="#131313" stroke-linecap="square" stroke-width="2" d="M289 9L285 13 281 9" transform="translate(0 182)"/>
            <text fill="#22232B" font-family="Avenir-Roman, Avenir" font-size="16" transform="translate(0 182)">
                <tspan x="0" y="16">Category</tspan>
            </text>
        </g>
        <g>
            <path fill="#1B1B1B" d="M0 34H300V36H0z" opacity=".1" transform="translate(0 121)"/>
            <path stroke="#131313" stroke-linecap="square" stroke-width="2" d="M289 9L285 13 281 9" transform="translate(0 121)"/>
            <text fill="#22232B" font-family="Avenir-Roman, Avenir" font-size="16" transform="translate(0 121)">
                <tspan x="0" y="16">Color</tspan>
            </text>
        </g>
        <g>
            <path fill="#1B1B1B" d="M0 34H300V36H0z" opacity=".1" transform="translate(0 60)"/>
            <path stroke="#131313" stroke-linecap="square" stroke-width="2" d="M289 9L285 13 281 9" transform="translate(0 60)"/>
            <text fill="#22232B" font-family="Avenir-Roman, Avenir" font-size="16" transform="translate(0 60)">
                <tspan x="0" y="16">Collection</tspan>
            </text>
        </g>
        <text fill="#22232B" font-family="Avenir-Roman, Avenir" font-size="13" opacity=".5">
            <tspan x="0" y="13">FILTER BY</tspan>
        </text>
    </g>
</svg>
