<svg xmlns="http://www.w3.org/2000/svg" width="71" height="11" viewBox="0 0 71 11">
    <g fill="none">
        <path stroke="#000" d="M65.345 1.575l-.948 2.951-3.019.33 2.286 1.769-.679 3.157 2.485-1.805 2.797 1.622-.947-2.915 2.202-2.12h-2.868l-1.309-2.989z"/>
        <path fill="#131313" d="M55.762 4.064H51.98l-1.253-3.9C50.696.066 50.604 0 50.501 0c-.103 0-.195.066-.227.164l-1.254 3.9h-3.78c-.103 0-.194.065-.227.162s-.001.204.08.267l3.016 2.335-1.255 3.859c-.032.098.003.206.087.267.084.061.197.061.281 0L50.5 8.572l3.279 2.382c.084.061.197.061.281 0 .084-.06.119-.169.087-.267l-1.255-3.86 3.015-2.334c.08-.063.113-.17.08-.266-.033-.097-.123-.162-.225-.163zM40.762 4.064H36.98l-1.253-3.9C35.696.066 35.604 0 35.501 0c-.103 0-.195.066-.227.164l-1.254 3.9h-3.78c-.103 0-.194.065-.227.162s-.001.204.08.267l3.016 2.335-1.255 3.859c-.032.098.003.206.087.267.084.061.197.061.281 0L35.5 8.572l3.279 2.382c.084.061.197.061.281 0 .084-.06.119-.169.087-.267l-1.255-3.86 3.015-2.334c.08-.063.113-.17.08-.266-.033-.097-.123-.162-.225-.163zM25.762 4.064H21.98l-1.253-3.9C20.696.066 20.604 0 20.501 0c-.103 0-.195.066-.227.164l-1.254 3.9h-3.78c-.103 0-.194.065-.227.162s-.001.204.08.267l3.016 2.335-1.255 3.859c-.032.098.003.206.087.267.084.061.197.061.281 0L20.5 8.572l3.279 2.382c.084.061.197.061.281 0 .084-.06.119-.169.087-.267l-1.255-3.86 3.015-2.334c.08-.063.113-.17.08-.266-.033-.097-.123-.162-.225-.163zM10.762 4.064H6.98L5.728.164C5.696.066 5.604 0 5.501 0c-.103 0-.195.066-.227.164l-1.254 3.9H.24c-.103 0-.194.065-.227.162s-.001.204.08.267l3.016 2.335-1.255 3.859c-.032.098.003.206.087.267.084.061.197.061.281 0L5.5 8.572l3.279 2.382c.084.061.197.061.281 0 .084-.06.119-.169.087-.267l-1.255-3.86 3.015-2.334c.08-.063.113-.17.08-.266-.033-.097-.123-.162-.225-.163z"/>
    </g>
</svg>
